<?xml version="1.0" encoding="utf-8"?>
<!-- Generator: Adobe Illustrator 25.4.2, SVG Export Plug-In . SVG Version: 6.00 Build 0)  -->
<svg version="1.1" id="Layer_1" xmlns="http://www.w3.org/2000/svg" xmlns:xlink="http://www.w3.org/1999/xlink" x="0px" y="0px"
	 viewBox="0 0 72.09 72.09" style="enable-background:new 0 0 72.09 72.09;" xml:space="preserve">
<style type="text/css">
	.st0{fill:#1414AD;}
	.st1{opacity:0.3;}
	.st2{fill:#FFFFFF;}
	.st3{opacity:0.1;fill:url(#SVGID_1_);}
	.st4{opacity:0.1;fill:url(#SVGID_00000156567801794209977590000007081406298312443819_);}
	.st5{opacity:0.1;fill:url(#SVGID_00000016050510158932158080000004898405876945006782_);}
	.st6{opacity:0.05;}
	.st7{fill:#ECECEC;}
	.st8{opacity:0.1;fill:url(#SVGID_00000057117578402101728020000007099098299159587516_);}
	.st9{opacity:0.1;fill:url(#SVGID_00000080903202312619687320000009674759281581085865_);}
	.st10{opacity:0.1;fill:url(#SVGID_00000152259990975661700540000012479610416856149655_);}
	.st11{fill:none;stroke:#FFFFFF;stroke-width:4;stroke-linecap:round;stroke-linejoin:round;stroke-miterlimit:10;}
	.st12{fill:url(#SVGID_00000160877908865201310750000012550151542647335091_);}
	.st13{fill:none;stroke:#FFFFFF;stroke-width:2;stroke-linecap:round;stroke-linejoin:round;stroke-miterlimit:10;}
	.st14{fill:#F7F7F7;}
	.st15{fill:url(#SVGID_00000029729647303261098120000017912197884357094064_);}
	.st16{fill:url(#SVGID_00000139986348344145072930000001741727241264779192_);}
	.st17{fill:url(#SVGID_00000103943481971036304480000016907951869661522604_);}
	.st18{fill:url(#SVGID_00000173135094434860383610000003352885015687012014_);}
	.st19{fill:url(#SVGID_00000018919390899434508920000017289867596903861140_);}
	.st20{fill:url(#SVGID_00000114066350755821673680000007584631453926456232_);}
	.st21{fill:url(#SVGID_00000147924375603295009720000008203113147984286339_);}
	.st22{fill:url(#SVGID_00000037692130010395116700000000443571735035859126_);}
	.st23{fill:url(#SVGID_00000173141895187385902730000006796615050625108655_);}
	.st24{fill:url(#SVGID_00000090977542044869103200000009084680678685475492_);}
	.st25{fill:url(#SVGID_00000127729759719550009890000015738347279678870666_);}
	.st26{fill:url(#SVGID_00000183938160951815338300000014268194188118977699_);}
	.st27{fill:url(#SVGID_00000114767658851376006220000004753920831305931916_);}
	.st28{fill:url(#SVGID_00000021078117417885078760000002003966854495073409_);}
	.st29{fill:url(#SVGID_00000140701345800208106220000009553478702417563826_);}
	.st30{fill:#2A2ADD;}
	.st31{fill:#DADADA;}
	.st32{opacity:0.8;}
	.st33{fill:#5E5EF7;}
	.st34{fill:#4CC97F;}
	.st35{fill:none;stroke:#4E4E4E;stroke-width:6;stroke-linecap:round;stroke-linejoin:round;stroke-miterlimit:10;}
	.st36{fill:#CCCBCB;}
	.st37{fill:#4E4E4F;}
</style>
<g>
	<g id="_x31_BRci5.tif_00000162337856762134189750000009031325395833929345_">
		<g>
			<g>
				<g>
					<g>
						<g>
							<path class="st36" d="M34.93,39.6l-4.51,6.18c-0.43,0.58-0.93,0.87-1.48,0.87c-0.45,0-0.87-0.16-1.25-0.48
								c-0.38-0.32-0.57-0.69-0.57-1.1c0-0.43,0.16-0.86,0.49-1.27l6.28-8.07c-0.1-0.14-2.06-2.61-5.87-7.39
								c-0.35-0.45-0.53-0.87-0.53-1.24c0-0.41,0.2-0.79,0.59-1.13c0.39-0.34,0.81-0.51,1.27-0.51c0.56,0,1.07,0.32,1.55,0.96
								l5.13,6.86l5.22-6.96c0.45-0.6,0.97-0.9,1.55-0.9c0.47,0,0.89,0.16,1.25,0.49c0.36,0.33,0.54,0.69,0.54,1.08
								c0,0.35-0.14,0.72-0.43,1.11l-6.03,7.64l6.12,7.7c0.49,0.62,0.74,1.12,0.74,1.52c0,0.41-0.2,0.79-0.6,1.13
								c-0.4,0.34-0.84,0.51-1.31,0.51c-0.58,0-1.12-0.36-1.64-1.08l-4.14-5.72l-1.27-1.61L34.93,39.6z"/>
							<path class="st36" d="M28.93,46.94c-0.52,0-1.01-0.18-1.44-0.55c-0.45-0.38-0.68-0.82-0.68-1.32c0-0.5,0.19-0.99,0.56-1.45
								l6.13-7.89c-0.75-0.96-4.44-5.59-5.73-7.2c-0.39-0.51-0.59-0.99-0.59-1.42c0-0.5,0.23-0.95,0.69-1.35
								c0.44-0.39,0.94-0.58,1.46-0.58c0.65,0,1.25,0.36,1.78,1.08l4.9,6.55L41,26.16c0.51-0.67,1.11-1.01,1.78-1.01
								c0.55,0,1.03,0.19,1.45,0.57c0.42,0.39,0.64,0.83,0.64,1.3c0,0.42-0.17,0.85-0.49,1.29l-5.89,7.46l5.98,7.51
								c0.54,0.68,0.81,1.24,0.81,1.7c0,0.5-0.24,0.95-0.71,1.35c-0.45,0.39-0.96,0.58-1.5,0.58c-0.67,0-1.31-0.41-1.88-1.21
								l-4.14-5.72l-1.03-1.3l-0.85,1.09l-4.51,6.18C30.16,46.61,29.59,46.94,28.93,46.94z M29.33,25.76
								c-0.38,0-0.73,0.14-1.07,0.44c-0.33,0.28-0.49,0.58-0.49,0.91c0,0.3,0.16,0.66,0.47,1.06c5.08,6.37,5.81,7.3,5.88,7.4
								l0.12,0.18l-6.41,8.24c-0.29,0.36-0.43,0.72-0.43,1.09c0,0.32,0.15,0.61,0.47,0.87c0.72,0.61,1.62,0.58,2.31-0.34l4.52-6.19
								l1.31-1.68l1.5,1.9l4.15,5.73c0.84,1.18,1.77,1.16,2.52,0.52c0.34-0.28,0.5-0.58,0.5-0.9c0-0.22-0.12-0.63-0.68-1.33
								l-6.26-7.88l0.14-0.18l6.03-7.64c0.24-0.33,0.37-0.64,0.37-0.93c0-0.31-0.15-0.59-0.45-0.87c-0.31-0.28-0.65-0.42-1.05-0.42
								c-0.49,0-0.91,0.25-1.31,0.78l-5.46,7.27l-0.24-0.31l-5.13-6.86C30.23,26.04,29.8,25.76,29.33,25.76z"/>
						</g>
					</g>
				</g>
			</g>
			<g>
				<g>
					<path class="st36" d="M36.04,67.65c-17.43,0-31.61-14.18-31.61-31.61S18.61,4.43,36.04,4.43s31.61,14.18,31.61,31.61
						S53.47,67.65,36.04,67.65z M36.04,7.19c-15.91,0-28.85,12.94-28.85,28.85S20.13,64.9,36.04,64.9S64.9,51.95,64.9,36.04
						S51.95,7.19,36.04,7.19z"/>
					<path class="st36" d="M36.04,67.95c-17.59,0-31.9-14.31-31.9-31.9s14.31-31.9,31.9-31.9c17.59,0,31.91,14.31,31.91,31.9
						S53.64,67.95,36.04,67.95z M36.04,4.73c-17.27,0-31.32,14.05-31.32,31.32s14.05,31.32,31.32,31.32
						c17.27,0,31.32-14.05,31.32-31.32S53.31,4.73,36.04,4.73z M36.04,65.19C19.97,65.19,6.9,52.11,6.9,36.04S19.97,6.9,36.04,6.9
						s29.15,13.08,29.15,29.15S52.11,65.19,36.04,65.19z M36.04,7.48C20.3,7.48,7.48,20.3,7.48,36.04S20.3,64.6,36.04,64.6
						S64.6,51.79,64.6,36.04S51.79,7.48,36.04,7.48z"/>
				</g>
			</g>
		</g>
	</g>
</g>
</svg>
