<?xml version="1.0" encoding="utf-8"?>
<!-- Generator: Adobe Illustrator 25.4.2, SVG Export Plug-In . SVG Version: 6.00 Build 0)  -->
<svg version="1.1" id="Layer_1" xmlns="http://www.w3.org/2000/svg" xmlns:xlink="http://www.w3.org/1999/xlink" x="0px" y="0px"
	 viewBox="0 0 83.95 83.94" style="enable-background:new 0 0 83.95 83.94;" xml:space="preserve">
<style type="text/css">
	.st0{fill:#1414AD;}
	.st1{opacity:0.3;}
	.st2{fill:#FFFFFF;}
	.st3{opacity:0.1;fill:url(#SVGID_1_);}
	.st4{opacity:0.1;fill:url(#SVGID_00000102545851694090542570000008152770459331106192_);}
	.st5{opacity:0.1;fill:url(#SVGID_00000076603738141511218770000001705738425226807739_);}
	.st6{opacity:0.05;}
	.st7{fill:#ECECEC;}
	.st8{opacity:0.1;fill:url(#SVGID_00000002374597181799614400000002232355308860339891_);}
	.st9{opacity:0.1;fill:url(#SVGID_00000088115576414008585440000002317005556423314352_);}
	.st10{opacity:0.1;fill:url(#SVGID_00000111152321221508592720000015402124302608337280_);}
	.st11{fill:none;stroke:#FFFFFF;stroke-width:4;stroke-linecap:round;stroke-linejoin:round;stroke-miterlimit:10;}
	.st12{fill:url(#SVGID_00000183222908413730153830000010417143310426914997_);}
	.st13{fill:none;stroke:#FFFFFF;stroke-width:2;stroke-linecap:round;stroke-linejoin:round;stroke-miterlimit:10;}
	.st14{fill:#F7F7F7;}
	.st15{fill:url(#SVGID_00000086691211365559791600000003431246889146669244_);}
	.st16{fill:url(#SVGID_00000054267035606880817480000009192622704179967415_);}
	.st17{fill:url(#SVGID_00000110432634635954928670000003663090929743696821_);}
	.st18{fill:url(#SVGID_00000160148776773779120770000012011671602814263999_);}
	.st19{fill:url(#SVGID_00000069382487506574314020000005709773048391928453_);}
	.st20{fill:url(#SVGID_00000165195612689510485110000011910846393496818061_);}
	.st21{fill:url(#SVGID_00000124148112934623105520000016474772695706220688_);}
	.st22{fill:url(#SVGID_00000129193596013267847350000006908274927975132055_);}
	.st23{fill:url(#SVGID_00000087374346738183043070000011532914373640088739_);}
	.st24{fill:url(#SVGID_00000036963690996347672610000017111483602757718189_);}
	.st25{fill:url(#SVGID_00000082359144710239603780000011901175943178502072_);}
	.st26{fill:url(#SVGID_00000039106265536248977040000002631062706391780737_);}
	.st27{fill:url(#SVGID_00000100381164663378724450000013854750685190309251_);}
	.st28{fill:url(#SVGID_00000106857264540841884260000009133042218386474415_);}
	.st29{fill:url(#SVGID_00000161616400704246466240000005161497926798729132_);}
	.st30{fill:#2A2ADD;}
	.st31{fill:#DADADA;}
</style>
<g>
	<g id="_x31_BRci5.tif_00000176738725526580287220000006704166934973041047_">
		<g>
			<g>
				<g>
					<g>
						<g>
							<path class="st31" d="M40.51,46.65l-5.94,8.14c-0.57,0.76-1.22,1.14-1.95,1.14c-0.6,0-1.15-0.21-1.65-0.63
								c-0.5-0.42-0.75-0.9-0.75-1.44c0-0.57,0.22-1.12,0.65-1.67l8.26-10.62c-0.14-0.19-2.71-3.43-7.73-9.72
								c-0.46-0.6-0.69-1.14-0.69-1.63c0-0.54,0.26-1.04,0.77-1.48c0.52-0.45,1.07-0.67,1.67-0.67c0.73,0,1.41,0.42,2.03,1.26
								l6.75,9.03l6.87-9.15c0.6-0.79,1.27-1.18,2.03-1.18c0.62,0,1.17,0.22,1.65,0.65c0.47,0.43,0.71,0.91,0.71,1.42
								c0,0.46-0.19,0.95-0.57,1.46L44.7,41.61l8.05,10.13c0.65,0.81,0.98,1.48,0.98,1.99c0,0.54-0.26,1.04-0.79,1.48
								c-0.53,0.45-1.11,0.67-1.73,0.67c-0.76,0-1.48-0.47-2.16-1.42l-5.45-7.52l-1.67-2.12L40.51,46.65z"/>
							<path class="st31" d="M32.62,56.31c-0.69,0-1.32-0.24-1.89-0.72c-0.59-0.5-0.89-1.08-0.89-1.74c0-0.65,0.25-1.3,0.73-1.91
								l8.07-10.38c-0.99-1.26-5.84-7.35-7.54-9.47c-0.52-0.67-0.78-1.3-0.78-1.87c0-0.66,0.3-1.25,0.91-1.78
								c0.59-0.51,1.23-0.76,1.92-0.76c0.86,0,1.65,0.48,2.35,1.41l6.44,8.62l6.57-8.74c0.67-0.88,1.45-1.33,2.34-1.33
								c0.72,0,1.36,0.25,1.91,0.75c0.56,0.51,0.84,1.09,0.84,1.71c0,0.55-0.22,1.11-0.65,1.69l-7.75,9.82l7.86,9.88
								c0.71,0.89,1.06,1.63,1.06,2.24c0,0.65-0.31,1.25-0.93,1.78c-0.6,0.51-1.26,0.76-1.98,0.76c-0.89,0-1.72-0.53-2.47-1.59
								l-5.45-7.52l-1.35-1.72l-1.12,1.44l-5.94,8.13C34.24,55.87,33.48,56.31,32.62,56.31z M33.15,28.45
								c-0.5,0-0.97,0.19-1.41,0.58c-0.43,0.37-0.64,0.76-0.64,1.19c0,0.4,0.21,0.87,0.61,1.39c6.68,8.38,7.65,9.6,7.74,9.73
								l0.16,0.23l-8.43,10.84c-0.38,0.48-0.57,0.95-0.57,1.43c0,0.43,0.2,0.8,0.62,1.15c0.94,0.8,2.14,0.76,3.04-0.45l5.95-8.14
								l1.73-2.21l1.97,2.5l5.46,7.54c1.11,1.56,2.33,1.53,3.32,0.68c0.44-0.37,0.66-0.76,0.66-1.19c0-0.29-0.15-0.83-0.89-1.75
								l-8.24-10.37l0.19-0.24l7.93-10.05c0.32-0.43,0.49-0.85,0.49-1.22c0-0.4-0.19-0.78-0.59-1.14c-0.4-0.37-0.86-0.55-1.38-0.55
								c-0.64,0-1.2,0.33-1.73,1.03l-7.18,9.56l-0.31-0.41l-6.75-9.03C34.32,28.81,33.75,28.45,33.15,28.45z"/>
						</g>
					</g>
				</g>
			</g>
			<g>
				<g>
					<path class="st31" d="M41.97,83.56c-22.93,0-41.59-18.66-41.59-41.59S19.04,0.39,41.97,0.39s41.59,18.66,41.59,41.59
						S64.9,83.56,41.97,83.56z M41.97,4.01c-20.93,0-37.96,17.03-37.96,37.96s17.03,37.96,37.96,37.96S79.93,62.9,79.93,41.97
						S62.9,4.01,41.97,4.01z"/>
					<path class="st31" d="M41.97,83.94C18.83,83.94,0,65.11,0,41.97S18.83,0,41.97,0c23.15,0,41.97,18.83,41.97,41.97
						S65.12,83.94,41.97,83.94z M41.97,0.77c-22.72,0-41.2,18.48-41.2,41.2s18.48,41.2,41.2,41.2c22.72,0,41.2-18.48,41.2-41.2
						S64.69,0.77,41.97,0.77z M41.97,80.32c-21.14,0-38.35-17.2-38.35-38.35S20.83,3.63,41.97,3.63s38.35,17.2,38.35,38.35
						S63.11,80.32,41.97,80.32z M41.97,4.4C21.25,4.4,4.4,21.25,4.4,41.97s16.86,37.57,37.57,37.57s37.57-16.86,37.57-37.57
						S62.69,4.4,41.97,4.4z"/>
				</g>
			</g>
		</g>
	</g>
</g>
</svg>
