<?xml version="1.0" encoding="utf-8"?>
<!-- Generator: Adobe Illustrator 25.4.2, SVG Export Plug-In . SVG Version: 6.00 Build 0)  -->
<svg version="1.1" id="Layer_1" xmlns="http://www.w3.org/2000/svg" xmlns:xlink="http://www.w3.org/1999/xlink" x="0px" y="0px"
	 viewBox="0 0 87.51 87.51" style="enable-background:new 0 0 87.51 87.51;" xml:space="preserve">
<style type="text/css">
	.st0{fill:#1414AD;}
	.st1{opacity:0.3;}
	.st2{fill:#FFFFFF;}
	.st3{opacity:0.1;fill:url(#SVGID_1_);}
	.st4{opacity:0.1;fill:url(#SVGID_00000023965973643958610110000004549896895515981488_);}
	.st5{opacity:0.1;fill:url(#SVGID_00000033329067163601178990000013651835756910003627_);}
	.st6{opacity:0.05;}
	.st7{fill:#ECECEC;}
	.st8{opacity:0.1;fill:url(#SVGID_00000052080501977242038750000015769147242278041996_);}
	.st9{opacity:0.1;fill:url(#SVGID_00000112613001008503598830000004991068496857695134_);}
	.st10{opacity:0.1;fill:url(#SVGID_00000041996775176292876790000007833976251193434774_);}
	.st11{fill:none;stroke:#FFFFFF;stroke-width:4;stroke-linecap:round;stroke-linejoin:round;stroke-miterlimit:10;}
	.st12{fill:url(#SVGID_00000039108569257181880180000006317240327538960053_);}
	.st13{fill:none;stroke:#FFFFFF;stroke-width:2;stroke-linecap:round;stroke-linejoin:round;stroke-miterlimit:10;}
	.st14{fill:#F7F7F7;}
	.st15{fill:url(#SVGID_00000019666256603144970780000014294587140160762285_);}
	.st16{fill:url(#SVGID_00000131336056861065869250000010719624331003131531_);}
	.st17{fill:url(#SVGID_00000176015960817507752090000005784414475723854770_);}
	.st18{fill:url(#SVGID_00000167380793600738755560000003322249394586657470_);}
	.st19{fill:url(#SVGID_00000060029754964990837620000011764818537316155306_);}
	.st20{fill:url(#SVGID_00000108269737159440483990000012086439423075817602_);}
	.st21{fill:url(#SVGID_00000026154578526318022200000004490664586457767558_);}
	.st22{fill:url(#SVGID_00000112609916027993251150000001796566171315031958_);}
	.st23{fill:url(#SVGID_00000154419110082769068550000006442518304272684462_);}
	.st24{fill:url(#SVGID_00000105429009188992859580000004559548701781940118_);}
	.st25{fill:url(#SVGID_00000155105143583363356090000005788008995288985504_);}
	.st26{fill:url(#SVGID_00000107590730353885798350000004165353518070077570_);}
	.st27{fill:url(#SVGID_00000067230422359700389620000015696661538802341285_);}
	.st28{fill:url(#SVGID_00000033353103991165567980000017665518746372457878_);}
	.st29{fill:url(#SVGID_00000029044578833772879770000008885422316137857679_);}
	.st30{fill:#2A2ADD;}
	.st31{fill:#5E5EF7;}
	.st32{opacity:0.8;}
</style>
<g>
	<g id="_x31_BRci5.tif_00000176738725526580287220000006704166934973041047_">
		<g>
			<g>
				<g>
					<g>
						<g>
							<path class="st31" d="M42.29,48.43l-5.94,8.14c-0.57,0.76-1.22,1.14-1.95,1.14c-0.6,0-1.15-0.21-1.65-0.63
								c-0.5-0.42-0.75-0.9-0.75-1.44c0-0.57,0.22-1.12,0.65-1.67l8.26-10.62c-0.14-0.19-2.71-3.43-7.73-9.72
								c-0.46-0.6-0.69-1.14-0.69-1.63c0-0.54,0.26-1.04,0.77-1.48c0.52-0.45,1.07-0.67,1.67-0.67c0.73,0,1.41,0.42,2.03,1.26
								l6.75,9.03l6.87-9.15c0.6-0.79,1.27-1.18,2.03-1.18c0.62,0,1.17,0.22,1.65,0.65s0.71,0.91,0.71,1.42
								c0,0.46-0.19,0.95-0.57,1.46l-7.93,10.05l8.05,10.13c0.65,0.81,0.98,1.48,0.98,1.99c0,0.54-0.26,1.04-0.79,1.48
								c-0.53,0.45-1.11,0.67-1.73,0.67c-0.76,0-1.48-0.47-2.16-1.42l-5.45-7.52l-1.67-2.12L42.29,48.43z"/>
							<path class="st31" d="M34.4,58.09c-0.69,0-1.32-0.24-1.89-0.72c-0.59-0.5-0.89-1.08-0.89-1.74c0-0.65,0.25-1.3,0.73-1.91
								l8.07-10.38c-0.99-1.26-5.84-7.35-7.54-9.47c-0.52-0.67-0.78-1.3-0.78-1.87c0-0.66,0.3-1.25,0.91-1.78
								c0.59-0.51,1.23-0.76,1.92-0.76c0.86,0,1.65,0.48,2.35,1.41l6.44,8.62l6.57-8.74c0.67-0.88,1.45-1.33,2.34-1.33
								c0.72,0,1.36,0.25,1.91,0.75c0.56,0.51,0.84,1.09,0.84,1.71c0,0.55-0.22,1.11-0.65,1.69l-7.75,9.82l7.86,9.88
								c0.71,0.89,1.06,1.63,1.06,2.24c0,0.65-0.31,1.25-0.93,1.78c-0.6,0.51-1.26,0.76-1.98,0.76c-0.89,0-1.72-0.53-2.47-1.59
								l-5.45-7.52l-1.35-1.72l-1.12,1.44l-5.94,8.13C36.02,57.66,35.26,58.09,34.4,58.09z M34.93,30.23c-0.5,0-0.97,0.19-1.41,0.58
								c-0.43,0.37-0.64,0.76-0.64,1.19c0,0.4,0.21,0.87,0.61,1.39c6.68,8.38,7.65,9.6,7.74,9.73l0.16,0.23L32.96,54.2
								c-0.38,0.48-0.57,0.95-0.57,1.43c0,0.43,0.2,0.8,0.62,1.15c0.94,0.8,2.14,0.76,3.04-0.45l5.95-8.14l1.73-2.21l1.97,2.5
								l5.46,7.54c1.11,1.56,2.33,1.53,3.32,0.68c0.44-0.37,0.66-0.76,0.66-1.19c0-0.29-0.15-0.83-0.89-1.75l-8.24-10.37l0.19-0.24
								l7.93-10.05c0.32-0.43,0.49-0.85,0.49-1.22c0-0.4-0.19-0.78-0.59-1.14c-0.4-0.37-0.86-0.55-1.38-0.55
								c-0.64,0-1.2,0.33-1.73,1.03l-7.18,9.56l-0.31-0.41l-6.75-9.03C36.1,30.59,35.54,30.23,34.93,30.23z"/>
						</g>
					</g>
				</g>
			</g>
			<g>
				<g>
					<path class="st31" d="M43.76,85.34c-22.93,0-41.59-18.66-41.59-41.59S20.83,2.17,43.76,2.17s41.59,18.66,41.59,41.59
						S66.69,85.34,43.76,85.34z M43.76,5.8C22.83,5.8,5.8,22.83,5.8,43.76s17.03,37.96,37.96,37.96s37.96-17.03,37.96-37.96
						S64.69,5.8,43.76,5.8z"/>
					<path class="st31" d="M43.76,85.73c-23.14,0-41.97-18.83-41.97-41.97S20.61,1.78,43.76,1.78c23.15,0,41.97,18.83,41.97,41.97
						S66.9,85.73,43.76,85.73z M43.76,2.56c-22.72,0-41.2,18.48-41.2,41.2s18.48,41.2,41.2,41.2c22.72,0,41.2-18.48,41.2-41.2
						S66.48,2.56,43.76,2.56z M43.76,82.1c-21.14,0-38.35-17.2-38.35-38.35S22.61,5.41,43.76,5.41S82.1,22.61,82.1,43.76
						S64.9,82.1,43.76,82.1z M43.76,6.18c-20.72,0-37.57,16.86-37.57,37.57s16.86,37.57,37.57,37.57s37.57-16.86,37.57-37.57
						S64.47,6.18,43.76,6.18z"/>
				</g>
			</g>
		</g>
	</g>
</g>
</svg>
