<?xml version="1.0" encoding="utf-8"?>
<!-- Generator: Adobe Illustrator 25.4.2, SVG Export Plug-In . SVG Version: 6.00 Build 0)  -->
<svg version="1.1" id="Layer_1" xmlns="http://www.w3.org/2000/svg" xmlns:xlink="http://www.w3.org/1999/xlink" x="0px" y="0px"
	 viewBox="0 0 72.09 72.09" style="enable-background:new 0 0 72.09 72.09;" xml:space="preserve">
<style type="text/css">
	.st0{fill:#1414AD;}
	.st1{opacity:0.3;}
	.st2{fill:#FFFFFF;}
	.st3{opacity:0.1;fill:url(#SVGID_1_);}
	.st4{opacity:0.1;fill:url(#SVGID_00000106865152789648224740000010967716800626275238_);}
	.st5{opacity:0.1;fill:url(#SVGID_00000031885580574841790900000014296546286897757091_);}
	.st6{opacity:0.05;}
	.st7{fill:#ECECEC;}
	.st8{opacity:0.1;fill:url(#SVGID_00000107590911174326554670000007155666303917294767_);}
	.st9{opacity:0.1;fill:url(#SVGID_00000004537674526137543630000000842787480830580357_);}
	.st10{opacity:0.1;fill:url(#SVGID_00000103222563964379256550000008788424834733018275_);}
	.st11{fill:none;stroke:#FFFFFF;stroke-width:4;stroke-linecap:round;stroke-linejoin:round;stroke-miterlimit:10;}
	.st12{fill:url(#SVGID_00000036210017748231867330000011420220837345923469_);}
	.st13{fill:none;stroke:#FFFFFF;stroke-width:2;stroke-linecap:round;stroke-linejoin:round;stroke-miterlimit:10;}
	.st14{fill:#F7F7F7;}
	.st15{fill:url(#SVGID_00000160171948497935022320000016240223098133369222_);}
	.st16{fill:url(#SVGID_00000026857000561087253980000002556950754861480375_);}
	.st17{fill:url(#SVGID_00000166674387360136264800000006011919396676048537_);}
	.st18{fill:url(#SVGID_00000054983329519775664060000005012854586551988883_);}
	.st19{fill:url(#SVGID_00000087408082753635074200000011836015207883999154_);}
	.st20{fill:url(#SVGID_00000110443098236854663290000004401808948811385757_);}
	.st21{fill:url(#SVGID_00000141417175245113648080000006577092200479388034_);}
	.st22{fill:url(#SVGID_00000080192156326472595400000010006969657539251116_);}
	.st23{fill:url(#SVGID_00000070803903837324268320000013404345067912031158_);}
	.st24{fill:url(#SVGID_00000021807479210299648980000005667478506920615355_);}
	.st25{fill:url(#SVGID_00000061459983540822229970000011161969573130921089_);}
	.st26{fill:url(#SVGID_00000030444460110556044650000017077990890033552790_);}
	.st27{fill:url(#SVGID_00000168815782785386509150000017535409574676667321_);}
	.st28{fill:url(#SVGID_00000159467939462698274580000000282983229633720710_);}
	.st29{fill:url(#SVGID_00000029026513811161688830000001807519458773542815_);}
	.st30{fill:#2A2ADD;}
	.st31{fill:#DADADA;}
	.st32{opacity:0.8;}
	.st33{fill:#5E5EF7;}
	.st34{fill:#4CC97F;}
	.st35{fill:none;stroke:#4E4E4E;stroke-width:6;stroke-linecap:round;stroke-linejoin:round;stroke-miterlimit:10;}
	.st36{fill:#CCCBCB;}
	.st37{fill:#4E4E4F;}
</style>
<g>
	<g>
		<g>
			<g>
				<path class="st34" d="M35.97,43.7C35.97,43.7,35.97,43.7,35.97,43.7c-0.51,0-0.98-0.23-1.29-0.63l-9.34-12.04
					c-0.55-0.71-0.42-1.74,0.29-2.29c0.71-0.55,1.74-0.42,2.29,0.29l8.06,10.39l8.2-10.4c0.56-0.71,1.58-0.83,2.29-0.27
					c0.71,0.56,0.83,1.59,0.27,2.29l-9.49,12.04C36.94,43.47,36.47,43.7,35.97,43.7z"/>
			</g>
		</g>
		<g>
			<g>
				<path class="st34" d="M36.04,67.65c-17.43,0-31.61-14.18-31.61-31.61S18.61,4.43,36.04,4.43s31.61,14.18,31.61,31.61
					S53.47,67.65,36.04,67.65z M36.04,7.19c-15.91,0-28.85,12.94-28.85,28.85S20.13,64.9,36.04,64.9S64.9,51.95,64.9,36.04
					S51.95,7.19,36.04,7.19z"/>
				<path class="st34" d="M36.04,67.95c-17.59,0-31.9-14.31-31.9-31.9s14.31-31.9,31.9-31.9c17.59,0,31.91,14.31,31.91,31.9
					S53.64,67.95,36.04,67.95z M36.04,4.73c-17.27,0-31.32,14.05-31.32,31.32s14.05,31.32,31.32,31.32
					c17.27,0,31.32-14.05,31.32-31.32S53.31,4.73,36.04,4.73z M36.04,65.19C19.97,65.19,6.9,52.11,6.9,36.04S19.97,6.9,36.04,6.9
					s29.15,13.08,29.15,29.15S52.11,65.19,36.04,65.19z M36.04,7.48C20.3,7.48,7.48,20.3,7.48,36.04S20.3,64.6,36.04,64.6
					S64.6,51.79,64.6,36.04S51.79,7.48,36.04,7.48z"/>
			</g>
		</g>
	</g>
</g>
</svg>
