<?xml version="1.0" encoding="utf-8"?>
<!-- Generator: Adobe Illustrator 25.4.2, SVG Export Plug-In . SVG Version: 6.00 Build 0)  -->
<svg version="1.1" id="Layer_1" xmlns="http://www.w3.org/2000/svg" xmlns:xlink="http://www.w3.org/1999/xlink" x="0px" y="0px"
	 viewBox="0 0 102.85 102.84" style="enable-background:new 0 0 102.85 102.84;" xml:space="preserve">
<style type="text/css">
	.st0{fill:#1414AD;}
	.st1{opacity:0.3;}
	.st2{fill:#FFFFFF;}
	.st3{opacity:0.1;fill:url(#SVGID_1_);}
	.st4{opacity:0.1;fill:url(#SVGID_00000025408847243287470800000018333601402629461389_);}
	.st5{opacity:0.1;fill:url(#SVGID_00000059275162355787188430000017519461451242182057_);}
	.st6{opacity:0.05;}
	.st7{fill:#ECECEC;}
	.st8{opacity:0.1;fill:url(#SVGID_00000121957621557343849600000006279862130845129094_);}
	.st9{opacity:0.1;fill:url(#SVGID_00000077317025733929672080000009745083428737741220_);}
	.st10{opacity:0.1;fill:url(#SVGID_00000086653725250705812270000005764979092517801388_);}
	.st11{fill:none;stroke:#FFFFFF;stroke-width:4;stroke-linecap:round;stroke-linejoin:round;stroke-miterlimit:10;}
	.st12{fill:url(#SVGID_00000061466834468144380660000010744779923228104103_);}
	.st13{fill:none;stroke:#FFFFFF;stroke-width:2;stroke-linecap:round;stroke-linejoin:round;stroke-miterlimit:10;}
	.st14{fill:#F7F7F7;}
	.st15{fill:url(#SVGID_00000143616208089252632880000007810822340914549659_);}
	.st16{fill:url(#SVGID_00000157285324296925946950000011834850781918675351_);}
	.st17{fill:url(#SVGID_00000170254898512568659500000001560750562346201986_);}
	.st18{fill:url(#SVGID_00000064334609467405377820000011398237262933841596_);}
	.st19{fill:url(#SVGID_00000121244613166248136250000006362530252984380063_);}
	.st20{fill:url(#SVGID_00000163071862761705992860000017563728098077166487_);}
	.st21{fill:url(#SVGID_00000009570691405112083950000000336620683819301298_);}
	.st22{fill:url(#SVGID_00000006667554471790680680000017347852249333216690_);}
	.st23{fill:url(#SVGID_00000042009385204605319110000008586623390995592323_);}
	.st24{fill:url(#SVGID_00000078747111828917827820000002772612716455841157_);}
	.st25{fill:url(#SVGID_00000068643573182490082810000009638286940767459980_);}
	.st26{fill:url(#SVGID_00000131362500715732646050000007880503214852838539_);}
	.st27{fill:url(#SVGID_00000137828779457136688610000002238757373521641358_);}
	.st28{fill:url(#SVGID_00000044154450826033740140000006231597173033899416_);}
	.st29{fill:url(#SVGID_00000165938247949028479660000005001255376620167058_);}
	.st30{fill:#2A2ADD;}
	.st31{fill:#DADADA;}
	.st32{opacity:0.8;}
	.st33{fill:#5E5EF7;}
	.st34{fill:#4CC97F;}
</style>
<g id="_x33_0DrN6_00000148629776934261174330000013464721403711120555_">
	<g>
		<g>
			<path class="st34" d="M2.35,51.42c0-27.18,22.04-49.13,49.36-49.07c26.82,0.06,49.13,22.19,48.78,49.73
				c-0.34,26.68-22.36,48.83-49.89,48.4C24.05,100.06,2.35,78.28,2.35,51.42z M33.72,47.35c-1.86,0-3.35,0.95-3.97,2.51
				c-0.65,1.66-0.35,3.19,0.9,4.45c4.38,4.42,8.79,8.8,13.18,13.2c0.56,0.56,1.21,0.97,1.99,1.15c1.83,0.44,3.19-0.32,4.45-1.58
				c8.55-8.58,17.12-17.14,25.68-25.71c0.34-0.34,0.66-0.71,0.92-1.11c1.36-2.14,0.39-5.03-1.99-5.92
				c-1.74-0.65-3.24-0.22-4.55,1.09c-7.61,7.62-15.24,15.23-22.84,22.87c-0.57,0.57-0.84,0.51-1.36-0.03
				c-3.14-3.19-6.32-6.34-9.48-9.51C35.79,47.88,34.8,47.3,33.72,47.35z"/>
		</g>
	</g>
</g>
</svg>
