<?xml version="1.0" encoding="utf-8"?>
<!-- Generator: Adobe Illustrator 25.4.2, SVG Export Plug-In . SVG Version: 6.00 Build 0)  -->
<svg version="1.1" id="Layer_1" xmlns="http://www.w3.org/2000/svg" xmlns:xlink="http://www.w3.org/1999/xlink" x="0px" y="0px"
	 viewBox="0 0 102.85 102.84" style="enable-background:new 0 0 102.85 102.84;" xml:space="preserve">
<style type="text/css">
	.st0{fill:#1414AD;}
	.st1{opacity:0.3;}
	.st2{fill:#FFFFFF;}
	.st3{opacity:0.1;fill:url(#SVGID_1_);}
	.st4{opacity:0.1;fill:url(#SVGID_00000172422078723467443330000015523724295273467061_);}
	.st5{opacity:0.1;fill:url(#SVGID_00000062876089286541763110000006263834232715840132_);}
	.st6{opacity:0.05;}
	.st7{fill:#ECECEC;}
	.st8{opacity:0.1;fill:url(#SVGID_00000018938184740683568050000006381405368530419121_);}
	.st9{opacity:0.1;fill:url(#SVGID_00000012449307176244621650000010827335548614427791_);}
	.st10{opacity:0.1;fill:url(#SVGID_00000019670005387220036200000009471708759231751055_);}
	.st11{fill:none;stroke:#FFFFFF;stroke-width:4;stroke-linecap:round;stroke-linejoin:round;stroke-miterlimit:10;}
	.st12{fill:url(#SVGID_00000044159641980135514430000005235704031224093073_);}
	.st13{fill:none;stroke:#FFFFFF;stroke-width:2;stroke-linecap:round;stroke-linejoin:round;stroke-miterlimit:10;}
	.st14{fill:#F7F7F7;}
	.st15{fill:url(#SVGID_00000107568556370158071790000006079056918045827750_);}
	.st16{fill:url(#SVGID_00000092440505389732931010000012183187303346547373_);}
	.st17{fill:url(#SVGID_00000149339702928758636510000005585331374129984909_);}
	.st18{fill:url(#SVGID_00000174560256251276041200000006515494764752345743_);}
	.st19{fill:url(#SVGID_00000122683069656940751490000010701413111495240367_);}
	.st20{fill:url(#SVGID_00000173866402743167964510000017404055882352519613_);}
	.st21{fill:url(#SVGID_00000076577725466998286140000001552470925941821572_);}
	.st22{fill:url(#SVGID_00000087370809623314833340000005078181104773865914_);}
	.st23{fill:url(#SVGID_00000080194516688549899940000008112869864891398043_);}
	.st24{fill:url(#SVGID_00000150816479426702637610000007258040178112792469_);}
	.st25{fill:url(#SVGID_00000111873364711325411040000006992776488634540705_);}
	.st26{fill:url(#SVGID_00000087414094771348865260000015343014470276423557_);}
	.st27{fill:url(#SVGID_00000099620620541097826190000008927966101188293292_);}
	.st28{fill:url(#SVGID_00000108296410104363630450000009082041157028662677_);}
	.st29{fill:url(#SVGID_00000013187757792895903960000006711272944108050320_);}
	.st30{fill:#2A2ADD;}
	.st31{fill:#DADADA;}
	.st32{opacity:0.8;}
	.st33{fill:#5E5EF7;}
	.st34{fill:#4CC97F;}
</style>
<g id="_x33_0DrN6_00000148629776934261174330000013464721403711120555_">
	<g>
		<g>
			<path class="st31" d="M2.35,51.42c0-27.18,22.04-49.13,49.36-49.07c26.82,0.06,49.13,22.19,48.78,49.73
				c-0.34,26.68-22.36,48.83-49.89,48.4C24.05,100.06,2.35,78.28,2.35,51.42z M33.72,47.35c-1.86,0-3.35,0.95-3.97,2.51
				c-0.65,1.66-0.35,3.19,0.9,4.45c4.38,4.42,8.79,8.8,13.18,13.2c0.56,0.56,1.21,0.97,1.99,1.15c1.83,0.44,3.19-0.32,4.45-1.58
				c8.55-8.58,17.12-17.14,25.68-25.71c0.34-0.34,0.66-0.71,0.92-1.11c1.36-2.14,0.39-5.03-1.99-5.92
				c-1.74-0.65-3.24-0.22-4.55,1.09c-7.61,7.62-15.24,15.23-22.84,22.87c-0.57,0.57-0.84,0.51-1.36-0.03
				c-3.14-3.19-6.32-6.34-9.48-9.51C35.79,47.88,34.8,47.3,33.72,47.35z"/>
		</g>
	</g>
</g>
</svg>
