<?xml version="1.0" encoding="utf-8"?>
<!-- Generator: Adobe Illustrator 25.4.2, SVG Export Plug-In . SVG Version: 6.00 Build 0)  -->
<svg version="1.1" id="Layer_1" xmlns="http://www.w3.org/2000/svg" xmlns:xlink="http://www.w3.org/1999/xlink" x="0px" y="0px"
	 viewBox="0 0 67.97 67.97" style="enable-background:new 0 0 67.97 67.97;" xml:space="preserve">
<style type="text/css">
	.st0{fill:#1414AD;}
	.st1{opacity:0.3;}
	.st2{fill:#FFFFFF;}
	.st3{opacity:0.1;fill:url(#SVGID_1_);}
	.st4{opacity:0.1;fill:url(#SVGID_00000067208932359588358710000012764848230547163030_);}
	.st5{opacity:0.1;fill:url(#SVGID_00000093863842659866988140000004248274225046630553_);}
	.st6{opacity:0.05;}
	.st7{fill:#ECECEC;}
	.st8{opacity:0.1;fill:url(#SVGID_00000103248993642664994140000012497443771150394815_);}
	.st9{opacity:0.1;fill:url(#SVGID_00000116216621824992464280000001781502671822989974_);}
	.st10{opacity:0.1;fill:url(#SVGID_00000115507494584090865810000016284235282429840011_);}
	.st11{fill:none;stroke:#FFFFFF;stroke-width:4;stroke-linecap:round;stroke-linejoin:round;stroke-miterlimit:10;}
</style>
<g id="mF1ePC_00000150081098641615632120000018374551565383112846_">
	<g>
		<path class="st2" d="M33.95,67.97C15.09,67.97-0.37,52.49,0.01,33.3C0.37,14.8,15.53-0.03,34.06,0
			c18.74,0.03,34.28,15.41,33.9,34.67C67.6,53.1,52.51,68.01,33.95,67.97z M3.59,33.95C3.57,50.83,17.33,64.51,34.21,64.38
			c16.67-0.12,30.14-13.71,30.17-30.34c0.03-16.9-13.77-30.59-30.65-30.45C17.06,3.73,3.6,17.33,3.59,33.95z"/>
		<path class="st2" d="M20.95,35.64c0.84,0.83,1.69,1.66,2.52,2.49c2.32,2.32,4.65,4.64,6.96,6.97c0.27,0.27,0.47,0.66,0.56,1.03
			c0.15,0.62-0.23,1.26-0.8,1.55c-0.58,0.3-1.28,0.22-1.76-0.25c-0.94-0.91-1.85-1.84-2.78-2.76c-3.12-3.11-6.23-6.23-9.35-9.35
			c-0.06-0.06-0.12-0.12-0.18-0.18c-0.7-0.73-0.7-1.61,0.02-2.33c3.2-3.2,6.4-6.41,9.61-9.61c0.88-0.88,1.76-1.77,2.64-2.64
			c0.48-0.47,1.15-0.59,1.72-0.31c0.59,0.28,0.9,0.77,0.91,1.43c0,0.48-0.24,0.86-0.57,1.19c-1.09,1.08-2.18,2.17-3.27,3.26
			c-1.99,1.99-3.99,3.99-5.98,5.98c-0.08,0.08-0.16,0.17-0.31,0.34c0.24,0,0.39,0,0.54,0c10.3,0,20.61,0,30.91-0.01
			c0.47,0,0.9,0.06,1.27,0.37c0.49,0.42,0.67,1.09,0.45,1.7c-0.22,0.62-0.77,1.01-1.47,1.02c-1.76,0.01-3.52,0.01-5.27,0.01
			c-6.37,0-12.74,0-19.12,0c-2.27,0-4.54,0-6.81,0c-0.13,0-0.26,0-0.39,0C20.98,35.57,20.97,35.6,20.95,35.64z"/>
	</g>
</g>
</svg>
