<?xml version="1.0" encoding="utf-8"?>
<!-- Generator: Adobe Illustrator 25.4.2, SVG Export Plug-In . SVG Version: 6.00 Build 0)  -->
<svg version="1.1" id="Layer_1" xmlns="http://www.w3.org/2000/svg" xmlns:xlink="http://www.w3.org/1999/xlink" x="0px" y="0px"
	 viewBox="0 0 56.09 72.09" style="enable-background:new 0 0 56.09 72.09;" xml:space="preserve">
<style type="text/css">
	.st0{fill:#1414AD;}
	.st1{opacity:0.3;}
	.st2{fill:#FFFFFF;}
	.st3{opacity:0.1;fill:url(#SVGID_1_);}
	.st4{opacity:0.1;fill:url(#SVGID_00000146463308719836069770000009191492088128091811_);}
	.st5{opacity:0.1;fill:url(#SVGID_00000178923025151016806040000005522829224881357220_);}
	.st6{opacity:0.05;}
	.st7{fill:#ECECEC;}
	.st8{opacity:0.1;fill:url(#SVGID_00000014616300810576011560000009723536766580145332_);}
	.st9{opacity:0.1;fill:url(#SVGID_00000179644146363734723590000013785485547567261628_);}
	.st10{opacity:0.1;fill:url(#SVGID_00000163054517889247487970000003963353169243337150_);}
	.st11{fill:none;stroke:#FFFFFF;stroke-width:4;stroke-linecap:round;stroke-linejoin:round;stroke-miterlimit:10;}
	.st12{fill:url(#SVGID_00000134950540475552479780000017100787208496369796_);}
	.st13{fill:none;stroke:#FFFFFF;stroke-width:2;stroke-linecap:round;stroke-linejoin:round;stroke-miterlimit:10;}
	.st14{fill:#F7F7F7;}
	.st15{fill:url(#SVGID_00000126300346170194937380000011348861588248775087_);}
	.st16{fill:url(#SVGID_00000068657745840062091770000003005484403821165489_);}
	.st17{fill:url(#SVGID_00000125562047124389921260000010387517433883312514_);}
	.st18{fill:url(#SVGID_00000154419460340957442050000017490168967962469816_);}
	.st19{fill:url(#SVGID_00000138536668585794119270000004000753905222861204_);}
	.st20{fill:url(#SVGID_00000125564841257571566460000013588296889291478414_);}
	.st21{fill:url(#SVGID_00000005257070549034798550000001592642657405638534_);}
	.st22{fill:url(#SVGID_00000124120686570889959200000000966907275472700829_);}
	.st23{fill:url(#SVGID_00000176009698210404693110000007453933654694094226_);}
	.st24{fill:url(#SVGID_00000169548945236366994340000005143633279813511343_);}
	.st25{fill:url(#SVGID_00000002383950050782199900000005433087475728441001_);}
	.st26{fill:url(#SVGID_00000175291167828865389890000009760633461620347313_);}
	.st27{fill:url(#SVGID_00000038396051086251510080000006314767342966568087_);}
	.st28{fill:url(#SVGID_00000142879047153945533730000017867393094183863742_);}
	.st29{fill:url(#SVGID_00000107559002818666949880000017359585994981134985_);}
	.st30{fill:#2A2ADD;}
	.st31{fill:#DADADA;}
	.st32{opacity:0.8;}
	.st33{fill:#5E5EF7;}
	.st34{fill:#4CC97F;}
	.st35{fill:none;stroke:#4E4E4E;stroke-width:6;stroke-linecap:round;stroke-linejoin:round;stroke-miterlimit:10;}
	.st36{fill:#CCCBCB;}
	.st37{fill:#4E4E4F;}
</style>
<g id="_x39_LTu0X_00000034073686346953419030000003475798409802934682_">
	<g>
		<path class="st37" d="M11.76,28.01c0-0.32,0-0.57,0-0.81c0.01-2.57-0.08-5.15,0.06-7.71C12.27,11.58,18.61,5.1,26.5,4.37
			c8.61-0.79,16.3,5.17,17.64,13.71c0.13,0.82,0.18,1.65,0.19,2.48c0.03,2.27,0.01,4.54,0.01,6.82c0,0.18,0,0.36,0,0.6
			c0.21,0.01,0.38,0.03,0.56,0.03c0.9,0.01,1.8-0.04,2.69,0.02c3.23,0.25,5.5,2.74,5.5,6c0,9.26,0,18.51,0,27.77
			c0,1-0.19,1.95-0.67,2.82c-1.11,2.01-2.83,3.14-5.12,3.14c-12.82,0.03-25.64,0.02-38.47,0.01c-3.25,0-5.81-2.64-5.81-5.96
			c-0.01-8.34,0-16.69,0-25.03c0-1.16-0.05-2.33,0.05-3.48c0.27-3.03,2.78-5.28,5.83-5.3C9.82,28,10.75,28.01,11.76,28.01z
			 M28.05,64.21c6.29,0,12.57,0,18.86,0c0.28,0,0.57,0,0.84-0.06c1.12-0.25,1.79-1.19,1.79-2.48c0-7.12,0-14.23,0-21.35
			c0-1.19,0.03-2.38,0.03-3.57c0-0.96-0.01-1.92-0.03-2.88c-0.04-1.4-1.06-2.3-2.58-2.3c-12.61,0-25.21,0-37.82,0
			c-0.15,0-0.3,0-0.45,0.01c-1.45,0.14-2.14,1.37-2.15,2.24c-0.02,2.02,0.02,4.04,0.02,6.06c0,7.2,0.03,14.4-0.02,21.59
			c-0.01,1.67,1.04,2.79,2.74,2.77C15.54,64.18,21.8,64.21,28.05,64.21z M40.74,27.98c0.01-0.12,0.03-0.22,0.03-0.32
			c0-2.49,0.05-4.98-0.01-7.46c-0.08-3.1-1.19-5.82-3.27-8.13c-3.54-3.92-9.08-5.26-13.95-3.4c-4.95,1.89-8.2,6.58-8.22,11.88
			c-0.01,2.3,0,4.61,0,6.91c0,0.16,0.02,0.32,0.03,0.51C23.83,27.98,32.28,27.98,40.74,27.98z"/>
		<path class="st37" d="M25.82,51.68c0-0.83-0.01-1.66,0.01-2.49c0.01-0.33-0.09-0.53-0.39-0.72c-1.72-1.11-2.53-3.02-2.17-5.02
			c0.34-1.89,1.82-3.41,3.72-3.84c2.29-0.51,4.61,0.68,5.54,2.85c0.93,2.18,0.19,4.66-1.83,5.99c-0.32,0.21-0.44,0.42-0.43,0.79
			c0.02,1.76,0.01,3.51,0.01,5.27c0,1.15-0.6,1.76-1.74,1.76c-0.46,0-0.93-0.02-1.39-0.06c-0.82-0.08-1.26-0.54-1.27-1.35
			c-0.02-1.06,0-2.12,0-3.18C25.85,51.68,25.84,51.68,25.82,51.68z"/>
	</g>
</g>
</svg>
