<?xml version="1.0" encoding="utf-8"?>
<!-- Generator: Adobe Illustrator 25.4.2, SVG Export Plug-In . SVG Version: 6.00 Build 0)  -->
<svg version="1.1" id="Layer_1" xmlns="http://www.w3.org/2000/svg" xmlns:xlink="http://www.w3.org/1999/xlink" x="0px" y="0px"
	 viewBox="0 0 132.54 132.54" style="enable-background:new 0 0 132.54 132.54;" xml:space="preserve">
<style type="text/css">
	.st0{fill:#1414AD;}
	.st1{opacity:0.3;}
	.st2{fill:#FFFFFF;}
	.st3{opacity:0.1;fill:url(#SVGID_1_);}
	.st4{opacity:0.1;fill:url(#SVGID_00000163040987676506409970000017703106662453523615_);}
	.st5{opacity:0.1;fill:url(#SVGID_00000077292950059204790270000018047974198291212186_);}
	.st6{opacity:0.05;}
	.st7{fill:#ECECEC;}
	.st8{opacity:0.1;fill:url(#SVGID_00000161611959386191354690000007005670075047803521_);}
	.st9{opacity:0.1;fill:url(#SVGID_00000181787812951024813200000006789602882584395171_);}
	.st10{opacity:0.1;fill:url(#SVGID_00000117667998692140131600000009547876315031395774_);}
	.st11{fill:none;stroke:#FFFFFF;stroke-width:4;stroke-linecap:round;stroke-linejoin:round;stroke-miterlimit:10;}
	.st12{fill:url(#SVGID_00000133512747989212849360000013023635082510941366_);}
	.st13{fill:none;stroke:#FFFFFF;stroke-width:2;stroke-linecap:round;stroke-linejoin:round;stroke-miterlimit:10;}
	.st14{fill:#F7F7F7;}
	.st15{fill:url(#SVGID_00000055664969368002355870000017229293149798595254_);}
	.st16{fill:url(#SVGID_00000093137238771176081240000004268037153415266691_);}
	.st17{fill:url(#SVGID_00000179610417605169186410000014242983459190193833_);}
	.st18{fill:url(#SVGID_00000042731509381388484770000002715530382017387423_);}
	.st19{fill:url(#SVGID_00000155848253395002463380000002175670050816015509_);}
	.st20{fill:url(#SVGID_00000041254369224225652620000013516815698587958678_);}
	.st21{fill:url(#SVGID_00000142869258686170765000000011497705135613153188_);}
	.st22{fill:url(#SVGID_00000104704189134626605140000011830192356088541071_);}
	.st23{fill:url(#SVGID_00000146459889244576924990000001017247837652888710_);}
	.st24{fill:url(#SVGID_00000165934231023505934720000017278056228308418955_);}
	.st25{fill:url(#SVGID_00000108991638449152198910000000891036891502647471_);}
	.st26{fill:url(#SVGID_00000150806232403175136770000016832744816612417463_);}
	.st27{fill:url(#SVGID_00000134245043121872140490000016164668788886372784_);}
	.st28{fill:url(#SVGID_00000172407955684872084560000004876369337057666748_);}
	.st29{fill:url(#SVGID_00000108282182114454998220000010340727181357752993_);}
	.st30{fill:#2A2ADD;}
	.st31{fill:#DADADA;}
	.st32{opacity:0.8;}
	.st33{fill:#5E5EF7;}
	.st34{fill:#4CC97F;}
	.st35{fill:none;stroke:#4E4E4E;stroke-width:6;stroke-linecap:round;stroke-linejoin:round;stroke-miterlimit:10;}
	.st36{fill:none;stroke:#2A2ADD;stroke-width:4;stroke-miterlimit:10;}
</style>
<g>
	<path class="st36" d="M66.27,126.38L66.27,126.38c-33.2,0-60.12-26.91-60.12-60.12v0c0-33.2,26.91-60.12,60.12-60.12h0
		c33.2,0,60.12,26.91,60.12,60.12v0C126.38,99.47,99.47,126.38,66.27,126.38z"/>
	<g id="jrJohg_00000089572740555024093520000008304630047133579428_">
		<g>
			<path class="st30" d="M48.68,83.83h35.06c0.03,0,0.05-0.02,0.05-0.05c0.04-0.77,0.11-1.5,0.11-2.23c0.01-3.53,0-7.05,0.01-10.58
				c0-1.29,0.54-2.22,1.67-2.42c1.42-0.25,2.69,0.97,2.7,2.42c0.01,4.92,0.01,9.85,0,14.77c0,2.06-1.24,2.58-3.06,2.57
				c-10.78-0.03-21.57-0.01-32.35-0.01c-1.9,0-3.81,0.02-5.71-0.01c-2.22-0.03-2.89-0.69-2.9-2.92c-0.03-4.65,0.01-9.31-0.02-13.96
				c-0.01-1.63,0.47-2.92,2.27-2.9c1.67,0.02,2.14,1.26,2.12,2.81c-0.04,4.06-0.01,8.12-0.01,12.44
				C48.62,83.81,48.65,83.83,48.68,83.83z"/>
			<path class="st30" d="M68.45,52.49c0,2.39,0,4.79,0,7.18c0,4.87-0.02,9.73,0.02,14.6c0.01,1.53-0.43,2.8-2.1,2.84
				c-1.81,0.05-2.29-1.24-2.28-2.87c0.03-6.63,0.01-13.26,0.01-19.89c0-0.65,0-1.29,0-2.56c0-0.05-0.06-0.08-0.09-0.04
				c-2.46,2.5-4.51,4.55-6.51,6.62c-1.15,1.19-2.44,1.95-3.8,0.53c-1.28-1.34-0.45-2.56,0.65-3.65c3.24-3.21,6.45-6.45,9.69-9.66
				c1.24-1.23,3.25-1.23,4.49,0c3.24,3.21,6.46,6.46,9.7,9.67c1.1,1.09,1.91,2.31,0.63,3.65c-1.37,1.43-2.66,0.65-3.8-0.55
				c-1.97-2.06-3.96-4.1-5.94-6.15C68.79,52.36,68.77,52.36,68.45,52.49z"/>
		</g>
	</g>
</g>
</svg>
