<?xml version="1.0" encoding="utf-8"?>
<!-- Generator: Adobe Illustrator 25.4.2, SVG Export Plug-In . SVG Version: 6.00 Build 0)  -->
<svg version="1.1" id="Layer_1" xmlns="http://www.w3.org/2000/svg" xmlns:xlink="http://www.w3.org/1999/xlink" x="0px" y="0px"
	 viewBox="0 0 79.54 79.66" style="enable-background:new 0 0 79.54 79.66;" xml:space="preserve">
<style type="text/css">
	.st0{fill:#1414AD;}
	.st1{opacity:0.3;}
	.st2{fill:#FFFFFF;}
	.st3{opacity:0.1;fill:url(#SVGID_1_);}
	.st4{opacity:0.1;fill:url(#SVGID_00000138534267292427998420000012677984223906862501_);}
	.st5{opacity:0.1;fill:url(#SVGID_00000155117958827724298320000013769586236031812520_);}
	.st6{opacity:0.05;}
	.st7{fill:#ECECEC;}
	.st8{opacity:0.1;fill:url(#SVGID_00000139275199548890368780000009329945824465061538_);}
	.st9{opacity:0.1;fill:url(#SVGID_00000171718476886936758040000007197129656332311690_);}
	.st10{opacity:0.1;fill:url(#SVGID_00000031186878692865161770000012473624192885290880_);}
	.st11{fill:none;stroke:#FFFFFF;stroke-width:4;stroke-linecap:round;stroke-linejoin:round;stroke-miterlimit:10;}
	.st12{fill:url(#SVGID_00000082342968039900111350000008133385116303106962_);}
	.st13{fill:none;stroke:#FFFFFF;stroke-width:2;stroke-linecap:round;stroke-linejoin:round;stroke-miterlimit:10;}
	.st14{fill:#F7F7F7;}
	.st15{fill:url(#SVGID_00000091693987846719213740000004035833210418362003_);}
	.st16{fill:url(#SVGID_00000062184181548804853560000008288297389397308834_);}
	.st17{fill:url(#SVGID_00000090981578088584306670000003538358389476402075_);}
	.st18{fill:url(#SVGID_00000051353812197446086390000000843332445262419611_);}
	.st19{fill:url(#SVGID_00000032625711999251247800000013483601076919852697_);}
	.st20{fill:url(#SVGID_00000027568868789378642520000002892736115003346338_);}
	.st21{fill:url(#SVGID_00000013873220452376992230000016139552346362421668_);}
	.st22{fill:url(#SVGID_00000063598373923141680110000015148301989010822787_);}
	.st23{fill:url(#SVGID_00000088814190083519063410000009815973668078739846_);}
	.st24{fill:url(#SVGID_00000104693146745335345660000005604093549799932317_);}
	.st25{fill:url(#SVGID_00000018223391888170862000000013156420021274220991_);}
	.st26{fill:url(#SVGID_00000121257361198685570120000010901609923761244032_);}
	.st27{fill:url(#SVGID_00000029034151759873174310000002996161773443538871_);}
	.st28{fill:url(#SVGID_00000117668144329409933230000009313561510442607276_);}
	.st29{fill:url(#SVGID_00000037687481248346311450000001210322697964823737_);}
	.st30{fill:#2A2ADD;}
</style>
<g id="jrJohg_00000112628470912868073440000008472893026422213001_">
	<g>
		<path class="st30" d="M7.91,71.55c21.41,0,42.24,0,63.51,0c0.08-1.43,0.21-2.77,0.21-4.12c0.02-6.37,0-12.73,0.02-19.1
			c0.01-2.71,1.31-4.52,4.09-4.43c2.55,0.08,3.79,1.84,3.79,4.38c0.01,8.91,0.01,17.83,0,26.74c0,3.72-2.24,4.66-5.52,4.65
			c-19.47-0.05-38.95-0.02-58.43-0.02c-3.44,0-6.87,0.04-10.31-0.01c-4.01-0.06-5.21-1.24-5.24-5.28C-0.01,65.95,0.06,57.54,0,49.14
			c-0.02-2.94,0.85-5.28,4.09-5.23c3.01,0.04,3.86,2.28,3.84,5.08C7.86,56.36,7.91,63.72,7.91,71.55z"/>
		<path class="st30" d="M43.71,14.72c0,4.4,0,8.8,0,13.21c0,8.79-0.04,17.58,0.03,26.36c0.02,2.77-0.77,5.05-3.79,5.14
			c-3.26,0.09-4.13-2.23-4.12-5.18c0.06-11.97,0.03-23.94,0.03-35.92c0-1.21,0-2.42,0-4.87c-4.53,4.6-8.26,8.34-11.94,12.14
			c-2.08,2.15-4.41,3.53-6.86,0.95c-2.31-2.42-0.81-4.63,1.17-6.59C24.1,14.13,29.92,8.24,35.8,2.42c3.27-3.24,4.7-3.23,7.97,0.02
			c5.88,5.83,11.7,11.71,17.58,17.53c1.99,1.97,3.45,4.18,1.13,6.59c-2.47,2.58-4.8,1.17-6.85-0.99c-3.65-3.82-7.33-7.6-11-11.4
			C44.32,14.36,44.02,14.54,43.71,14.72z"/>
	</g>
</g>
</svg>
