<?xml version="1.0" encoding="utf-8"?>
<!-- Generator: Adobe Illustrator 25.4.2, SVG Export Plug-In . SVG Version: 6.00 Build 0)  -->
<svg version="1.1" id="Layer_1" xmlns="http://www.w3.org/2000/svg" xmlns:xlink="http://www.w3.org/1999/xlink" x="0px" y="0px"
	 viewBox="0 0 102.85 102.84" style="enable-background:new 0 0 102.85 102.84;" xml:space="preserve">
<style type="text/css">
	.st0{fill:#1414AD;}
	.st1{opacity:0.3;}
	.st2{fill:#FFFFFF;}
	.st3{opacity:0.1;fill:url(#SVGID_1_);}
	.st4{opacity:0.1;fill:url(#SVGID_00000141441782092486081440000013506782015865384364_);}
	.st5{opacity:0.1;fill:url(#SVGID_00000017478494190091542630000015812972208119093378_);}
	.st6{opacity:0.05;}
	.st7{fill:#ECECEC;}
	.st8{opacity:0.1;fill:url(#SVGID_00000060020373471012259910000014182986117982128529_);}
	.st9{opacity:0.1;fill:url(#SVGID_00000054233670987324607650000017458969674249484178_);}
	.st10{opacity:0.1;fill:url(#SVGID_00000142141556693936697030000018214985314297456518_);}
	.st11{fill:none;stroke:#FFFFFF;stroke-width:4;stroke-linecap:round;stroke-linejoin:round;stroke-miterlimit:10;}
	.st12{fill:url(#SVGID_00000091009535715304700020000011526190145452863125_);}
	.st13{fill:none;stroke:#FFFFFF;stroke-width:2;stroke-linecap:round;stroke-linejoin:round;stroke-miterlimit:10;}
	.st14{fill:#F7F7F7;}
	.st15{fill:url(#SVGID_00000134236545739362314180000009096531574770870967_);}
	.st16{fill:url(#SVGID_00000056403206626986131430000005975643728488942729_);}
	.st17{fill:url(#SVGID_00000147927689664261719910000009697706150517699716_);}
	.st18{fill:url(#SVGID_00000057834343406869966910000009193763511111591603_);}
	.st19{fill:url(#SVGID_00000140695977362297213430000008578478460647932588_);}
	.st20{fill:url(#SVGID_00000076575224907522354020000010450975303671936652_);}
	.st21{fill:url(#SVGID_00000059308472614081963760000017303525505825333162_);}
	.st22{fill:url(#SVGID_00000129198849288107047830000000395719713200517251_);}
	.st23{fill:url(#SVGID_00000001626283870161934210000001462929272133780654_);}
	.st24{fill:url(#SVGID_00000015342722292798552150000014635946177100435626_);}
	.st25{fill:url(#SVGID_00000039122030749809521850000008426337882665604014_);}
	.st26{fill:url(#SVGID_00000183241668684738850210000013752049415081791659_);}
	.st27{fill:url(#SVGID_00000075848039622314082950000010153900475070668728_);}
	.st28{fill:url(#SVGID_00000075858574221083762040000009094226928255971479_);}
	.st29{fill:url(#SVGID_00000048460181990190295870000008135291824862201729_);}
	.st30{fill:#2A2ADD;}
	.st31{fill:#DADADA;}
	.st32{opacity:0.8;}
	.st33{fill:#5E5EF7;}
</style>
<g id="_x33_0DrN6_00000148629776934261174330000013464721403711120555_">
	<g>
		<path class="st2" d="M2.35,51.42c0-27.18,22.04-49.13,49.36-49.07c26.82,0.06,49.13,22.19,48.78,49.73
			c-0.34,26.68-22.36,48.83-49.89,48.4C24.05,100.06,2.35,78.28,2.35,51.42z M33.72,47.35c-1.86,0-3.35,0.95-3.97,2.51
			c-0.65,1.66-0.35,3.19,0.9,4.45c4.38,4.42,8.79,8.8,13.18,13.2c0.56,0.56,1.21,0.97,1.99,1.15c1.83,0.44,3.19-0.32,4.45-1.58
			c8.55-8.58,17.12-17.14,25.68-25.71c0.34-0.34,0.66-0.71,0.92-1.11c1.36-2.14,0.39-5.03-1.99-5.92c-1.74-0.65-3.24-0.22-4.55,1.09
			c-7.61,7.62-15.24,15.23-22.84,22.87c-0.57,0.57-0.84,0.51-1.36-0.03c-3.14-3.19-6.32-6.34-9.48-9.51
			C35.79,47.88,34.8,47.3,33.72,47.35z"/>
	</g>
</g>
</svg>
