<?xml version="1.0" encoding="utf-8"?>
<!-- Generator: Adobe Illustrator 25.4.2, SVG Export Plug-In . SVG Version: 6.00 Build 0)  -->
<svg version="1.1" id="Layer_1" xmlns="http://www.w3.org/2000/svg" xmlns:xlink="http://www.w3.org/1999/xlink" x="0px" y="0px"
	 viewBox="0 0 521.8 508.55" style="enable-background:new 0 0 521.8 508.55;" xml:space="preserve">
<style type="text/css">
	.st0{fill:#1414AD;}
	.st1{opacity:0.3;}
	.st2{fill:#FFFFFF;}
	.st3{opacity:0.1;fill:url(#SVGID_1_);}
	.st4{opacity:0.1;fill:url(#SVGID_00000051386035831960541080000001893850665794553276_);}
	.st5{opacity:0.1;fill:url(#SVGID_00000096056185560272316520000002441408635353894570_);}
	.st6{opacity:0.05;}
	.st7{fill:#ECECEC;}
	.st8{opacity:0.1;fill:url(#SVGID_00000125561521372835386710000009735773315124731316_);}
	.st9{opacity:0.1;fill:url(#SVGID_00000059273334175054925620000004770591675673112219_);}
	.st10{opacity:0.1;fill:url(#SVGID_00000083780556729273930320000010552951212712365241_);}
	.st11{fill:none;stroke:#FFFFFF;stroke-width:4;stroke-linecap:round;stroke-linejoin:round;stroke-miterlimit:10;}
	.st12{fill:url(#SVGID_00000183230634967162250610000005621193018176948356_);}
	.st13{fill:none;stroke:#FFFFFF;stroke-width:2;stroke-linecap:round;stroke-linejoin:round;stroke-miterlimit:10;}
	.st14{fill:#F7F7F7;}
	.st15{fill:url(#SVGID_00000041267710460794492470000003604370921071212168_);}
	.st16{fill:url(#SVGID_00000059305081340386646820000015817948429264678281_);}
	.st17{fill:url(#SVGID_00000054973129510789293400000002982465080222781335_);}
	.st18{fill:url(#SVGID_00000054965897601660808340000006476381731050694073_);}
	.st19{fill:url(#SVGID_00000089536656063746662760000015580582670349313673_);}
	.st20{fill:url(#SVGID_00000092437965625415678630000001269501329394559393_);}
	.st21{fill:url(#SVGID_00000024716773856599558000000001906815756061715855_);}
	.st22{fill:url(#SVGID_00000032611503205067874180000010226153252476485304_);}
	.st23{fill:url(#SVGID_00000084527530980311570200000005137186237714618287_);}
	.st24{fill:url(#SVGID_00000010304573147999442360000006715467551780626588_);}
	.st25{fill:url(#SVGID_00000063591442863644054680000003017501936985381539_);}
	.st26{fill:url(#SVGID_00000125597628028937957930000009575282173985751991_);}
	.st27{fill:url(#SVGID_00000022531943186076195340000016351837433457993634_);}
	.st28{fill:url(#SVGID_00000097470435331660889970000017639863186011600285_);}
	.st29{fill:url(#SVGID_00000042009905914781870530000016816975038928858792_);}
	.st30{fill:#2A2ADD;}
	.st31{fill:#DADADA;}
	.st32{opacity:0.8;}
	.st33{fill:#5E5EF7;}
	.st34{fill:#4CC97F;}
	.st35{fill:none;stroke:#4E4E4E;stroke-width:6;stroke-linecap:round;stroke-linejoin:round;stroke-miterlimit:10;}
	.st36{fill:none;stroke:#2A2ADD;stroke-width:4;stroke-miterlimit:10;}
</style>
<path class="st14" d="M210.62,45.96c-22.77,20.59-25.32,55.08-40.24,81.9c-25.69,46.16-84.19,64.06-116.24,106.05
	c-20.24,26.52-28.08,62.35-23.65,94.39c6.3,45.48,36.78,88.28,81.44,101.13c12.39,3.57,25.83,4.99,40.08,3.89
	c26.65-2.06,53.65-7.79,79.82-2.38c28.85,5.96,53.21,24.73,80.45,35.95c33.92,13.96,71.98,15.89,108.17,9.92
	c24.69-4.07,49.62-12.2,68.03-29.15c1.39-1.28,2.72-2.62,4.02-3.98V258.52c-14.81-11.62-32.34-20.42-47.9-30.64
	c-39.14-25.71-67.05-66.88-80.14-111.85c-5.86-20.14-9.35-41.97-22.7-58.15c-13.73-16.65-35.64-24.3-56.97-27.62
	C258.96,26.26,230.01,28.43,210.62,45.96z"/>
</svg>
