<?xml version="1.0" encoding="utf-8"?>
<!-- Generator: Adobe Illustrator 25.4.2, SVG Export Plug-In . SVG Version: 6.00 Build 0)  -->
<svg version="1.1" id="Layer_1" xmlns="http://www.w3.org/2000/svg" xmlns:xlink="http://www.w3.org/1999/xlink" x="0px" y="0px"
	 viewBox="0 0 183.88 45.23" style="enable-background:new 0 0 183.88 45.23;" xml:space="preserve">
<style type="text/css">
	.st0{fill:#1414AD;}
	.st1{opacity:0.3;}
	.st2{fill:#FFFFFF;}
	.st3{opacity:0.1;fill:url(#SVGID_1_);}
	.st4{opacity:0.1;fill:url(#SVGID_00000174589117772520145220000012809231769502889918_);}
	.st5{opacity:0.1;fill:url(#SVGID_00000101807779120558325970000004571117185154897537_);}
	.st6{opacity:0.05;}
	.st7{fill:#ECECEC;}
	.st8{opacity:0.1;fill:url(#SVGID_00000096773810129702062860000018032028180797948290_);}
	.st9{opacity:0.1;fill:url(#SVGID_00000155841591616246420450000007619820267185032618_);}
	.st10{opacity:0.1;fill:url(#SVGID_00000052079370982347432690000015457306363425941181_);}
	.st11{fill:none;stroke:#FFFFFF;stroke-width:4;stroke-linecap:round;stroke-linejoin:round;stroke-miterlimit:10;}
	.st12{fill:url(#SVGID_00000092455471216273084840000015986024883892977043_);}
	.st13{fill:none;stroke:#FFFFFF;stroke-width:2;stroke-linecap:round;stroke-linejoin:round;stroke-miterlimit:10;}
</style>
<g>
	<linearGradient id="SVGID_1_" gradientUnits="userSpaceOnUse" x1="0" y1="22.6164" x2="183.8773" y2="22.6164">
		<stop  offset="0.0255" style="stop-color:#00DF8D"/>
		<stop  offset="1" style="stop-color:#2A2ADD"/>
	</linearGradient>
	<path style="fill:url(#SVGID_1_);" d="M183.88,3.94c0-2.18-1.76-3.94-3.94-3.94H3.96C1.79,0,0.02,1.76,0.02,3.94
		c0,0-1.27,7.52,16.1,8.37c17.37,0.85,50.58,4.28,55.59,16.97c0.3,0.75,0.6,1.32,0.91,1.74c2.56,8.24,10.25,14.21,19.33,14.21
		c9.1,0,16.79-6,19.34-14.26c0.3-0.41,0.59-0.97,0.88-1.69c5-12.69,38.21-16.12,55.59-16.97c16.22-0.79,16.19-7.4,16.11-8.27
		C183.87,4,183.88,3.97,183.88,3.94z"/>
	<polyline class="st13" points="84.51,20.7 91.9,29.28 99.39,20.7 	"/>
</g>
</svg>
