<?xml version="1.0" encoding="utf-8"?>
<!-- Generator: Adobe Illustrator 25.4.2, SVG Export Plug-In . SVG Version: 6.00 Build 0)  -->
<svg version="1.1" id="Layer_1" xmlns="http://www.w3.org/2000/svg" xmlns:xlink="http://www.w3.org/1999/xlink" x="0px" y="0px"
	 viewBox="0 0 1920 1080" style="enable-background:new 0 0 1920 1080;" xml:space="preserve">
<style type="text/css">
	.st0{fill:#1414AD;}
	.st1{opacity:0.3;}
	.st2{fill:#FFFFFF;}
	.st3{opacity:0.1;fill:url(#SVGID_1_);}
	.st4{opacity:0.1;fill:url(#SVGID_00000029768372024028580940000017318422399259563655_);}
	.st5{opacity:0.1;fill:url(#SVGID_00000154401446430798582400000012006710877261941692_);}
	.st6{opacity:0.05;}
	.st7{fill:#ECECEC;}
	.st8{opacity:0.1;fill:url(#SVGID_00000119827672495810389270000003621732379668911246_);}
	.st9{opacity:0.1;fill:url(#SVGID_00000010289146750470307790000017667202353287500964_);}
	.st10{opacity:0.1;fill:url(#SVGID_00000134960606188491738700000017158584627270541974_);}
	.st11{fill:none;stroke:#FFFFFF;stroke-width:4;stroke-linecap:round;stroke-linejoin:round;stroke-miterlimit:10;}
	.st12{fill:url(#SVGID_00000086693790091510415010000000615357014532408966_);}
	.st13{fill:none;stroke:#FFFFFF;stroke-width:2;stroke-linecap:round;stroke-linejoin:round;stroke-miterlimit:10;}
	.st14{fill:#F7F7F7;}
</style>
<path class="st14" d="M52.59,621.02c-37.85-53.84-124.4-211.39,50.07-258.45s118.61-181.55,246.05-179.57
	c127.45,1.98,252.53,108.74,237.17,210.03s-155.21,93.25-194.31,197.88S119.16,715.72,52.59,621.02z"/>
<path class="st14" d="M1638.62,608.72c-22.77,20.59-25.32,55.08-40.24,81.9c-25.69,46.16-84.19,64.06-116.24,106.05
	c-20.24,26.52-28.08,62.35-23.65,94.39c6.3,45.48,36.78,88.28,81.44,101.13c12.39,3.57,25.83,4.99,40.08,3.89
	c26.65-2.06,53.65-7.79,79.82-2.38c28.85,5.96,53.21,24.73,80.45,35.95c33.91,13.96,71.98,15.89,108.17,9.92
	c24.69-4.07,49.62-12.2,68.03-29.15c1.39-1.28,2.72-2.62,4.02-3.98V821.28c-14.81-11.62-32.34-20.42-47.9-30.64
	c-39.14-25.71-67.05-66.88-80.14-111.85c-5.86-20.14-9.35-41.97-22.7-58.15c-13.73-16.65-35.64-24.3-56.97-27.62
	C1686.96,589.02,1658.01,591.19,1638.62,608.72z"/>
</svg>
